<svg xmlns="http://www.w3.org/2000/svg" xmlns:xlink="http://www.w3.org/1999/xlink" version="1.1"
    x="0px" y="0px" viewBox="0 0 100 125" style="enable-background:new 0 0 100 100;"
    xml:space="preserve"><g><rect x="45" y="32.5" width="10" height="5"/><path d="M63.8,55V24.4c0-7.6-6.2-13.8-13.8-13.8s-13.8,6.2-13.8,13.8V55h5V24.4c0-4.8,3.9-8.8,8.8-8.8s8.8,3.9,8.8,8.8V55H63.8z"/><path d="M31.7,35.4v-5H17.5v38.5c0,11.3,9.2,20.5,20.5,20.5h24c11.3,0,20.5-9.2,20.5-20.5V30.4H68.1v5h9.4v33.5   c0,8.5-7,15.5-15.5,15.5H38c-8.5,0-15.5-7-15.5-15.5V35.4H31.7z"/></g></svg>