<svg xmlns="http://www.w3.org/2000/svg" viewBox="0 0 68 82.5" x="0px" y="0px">
    <path fill="#000000" fill-rule="evenodd"
        d="M197,191 C193.134007,191 190,187.865993 190,184 C190,180.134007 193.134007,177 197,177 C200.865993,177 204,180.134007 204,184 C204,187.865993 200.865993,191 197,191 Z M183,217 C179.134007,217 176,213.865993 176,210 C176,206.134007 179.134007,203 183,203 C186.865993,203 190,206.134007 190,210 C190,213.865993 186.865993,217 183,217 Z M237,217 C233.134007,217 230,213.865993 230,210 C230,206.134007 233.134007,203 237,203 C240.865993,203 244,206.134007 244,210 C244,213.865993 240.865993,217 237,217 Z M210,221 C203.924868,221 199,216.075132 199,210 C199,203.924868 203.924868,199 210,199 C216.075132,199 221,203.924868 221,210 C221,216.075132 216.075132,221 210,221 Z M223,191 C219.134007,191 216,187.865993 216,184 C216,180.134007 219.134007,177 223,177 C226.865993,177 230,180.134007 230,184 C230,187.865993 226.865993,191 223,191 Z M197,243 C193.134007,243 190,239.865993 190,236 C190,232.134007 193.134007,229 197,229 C200.865993,229 204,232.134007 204,236 C204,239.865993 200.865993,243 197,243 Z M223,243 C219.134007,243 216,239.865993 216,236 C216,232.134007 219.134007,229 223,229 C226.865993,229 230,232.134007 230,236 C230,239.865993 226.865993,243 223,243 Z"
        transform="translate(-176 -177)" />
</svg>