<svg xmlns="http://www.w3.org/2000/svg" viewBox="0 0 64 80" fill="none" x="0px" y="0px"><path d="M2 14C2 12.8954 2.89543 12 4 12L60 12C61.1046 12 62 12.8954 62 14C62 15.1046 61.1046 16 60 16L4 16C2.89543 16 2 15.1046 2 14Z" fill="black"/><path d="M2 32C2 30.8954 2.89543 30 4 30L60 30C61.1046 30 62 30.8954 62 32C62 33.1046 61.1046 34 60 34L4 34C2.89543 34 2 33.1046 2 32Z" fill="black"/><path d="M4 48C2.89543 48 2 48.8954 2 50C2 51.1046 2.89543 52 4 52L60 52C61.1046 52 62 51.1046 62 50C62 48.8954 61.1046 48 60 48L4 48Z" fill="black"/></svg>